<svg width="100" height="36" viewBox="0 0 100 36" fill="none" xmlns="http://www.w3.org/2000/svg">
<path d="M11.7085 6.27832H9.57965V7.3479H11.7085V6.27832Z" fill="black"/>
<path d="M11.7085 8.41748H9.57965V9.48706H11.7085V8.41748Z" fill="black"/>
<path d="M11.7085 10.5566H9.57965V11.6262H11.7085V10.5566Z" fill="black"/>
<path d="M19.1593 6.81311H18.0949C18.0946 7.09668 17.9823 7.36854 17.7828 7.56905C17.5833 7.76956 17.3127 7.88236 17.0305 7.88269V8.95228C17.5949 8.95164 18.136 8.72606 18.5351 8.32503C18.9342 7.92399 19.1587 7.38026 19.1593 6.81311Z" fill="black"/>
<path d="M21.8204 9.48707V8.41748C21.5382 8.41715 21.2677 8.30435 21.0681 8.10384C20.8686 7.90333 20.7563 7.63147 20.756 7.3479H19.6916C19.6922 7.91505 19.9167 8.45878 20.3158 8.85982C20.7149 9.26085 21.256 9.48643 21.8204 9.48707Z" fill="black"/>
<path d="M27.4078 32.7661C26.5094 32.9302 25.593 32.9714 24.6835 32.8884L15.4299 32.043C15.2811 32.0294 15.1433 31.9587 15.0451 31.8456C14.9469 31.7325 14.8959 31.5857 14.9026 31.4358C14.9094 31.2859 14.9733 31.1443 15.0813 31.0406C15.1892 30.9368 15.3328 30.8789 15.4821 30.8788H22.6186C22.9715 30.8782 23.3098 30.737 23.5592 30.4861C23.8086 30.2352 23.9488 29.8952 23.9491 29.5405V29.528C23.9485 29.247 23.8577 28.9737 23.6904 28.7486L22.4718 27.1166C22.3946 27.0128 22.3527 26.8867 22.3525 26.7571V26.6653C22.3525 26.5467 22.3875 26.4308 22.453 26.3322C22.5186 26.2336 22.6118 26.1567 22.7208 26.1113C22.8299 26.0659 22.9499 26.0541 23.0656 26.0772C23.1814 26.1003 23.2877 26.1575 23.3712 26.2413L25.7015 28.583C25.751 28.6326 25.8096 28.672 25.8742 28.6989C25.9388 28.7258 26.008 28.7396 26.0779 28.7396H31.9321V27.67H26.2983L24.1239 25.4849C24.0692 25.4301 24.0108 25.3791 23.9491 25.3322V13.2306C23.9491 13.0888 23.893 12.9528 23.7932 12.8525C23.6934 12.7522 23.558 12.6958 23.4169 12.6958H22.8847V11.0915H23.683C24.177 11.0915 24.6508 10.8943 25.0001 10.5432C25.3494 10.1922 25.5457 9.71612 25.5457 9.21969C25.5457 8.72327 25.3494 8.24718 25.0001 7.89615C24.6508 7.54513 24.177 7.34792 23.683 7.34792H23.628C23.8944 7.02709 24.0314 6.61751 24.0119 6.2001C23.9924 5.78268 23.8179 5.38779 23.5227 5.09343C23.2276 4.79908 22.8333 4.62666 22.4177 4.61025C22.0022 4.59384 21.5957 4.73462 21.2784 5.0048C21.2281 4.47508 20.983 3.98324 20.5912 3.6253C20.1993 3.26737 19.6888 3.06904 19.1593 3.06904C18.6297 3.06904 18.1192 3.26737 17.7273 3.6253C17.3355 3.98324 17.0904 4.47508 17.0401 5.0048C16.7229 4.73462 16.3163 4.59384 15.9008 4.61025C15.4853 4.62666 15.091 4.79908 14.7958 5.09343C14.5006 5.38779 14.3261 5.78268 14.3066 6.2001C14.2871 6.61751 14.4241 7.02709 14.6906 7.34792H14.6355C14.3593 7.34767 14.0866 7.4095 13.8372 7.52888V5.20875C13.8372 4.35774 13.5008 3.54158 12.902 2.93982C12.3031 2.33806 11.4909 2 10.644 2C9.79714 2 8.98493 2.33806 8.38609 2.93982C7.78725 3.54158 7.45082 4.35774 7.45082 5.20875V12.6958H6.91862C6.77747 12.6958 6.6421 12.7522 6.5423 12.8525C6.44249 12.9528 6.38642 13.0888 6.38642 13.2306V15.5822L3.52856 18.0438H0V19.1133H3.72541C3.85245 19.1133 3.97529 19.0677 4.07174 18.9846L7.15638 16.3277C7.47349 16.0548 7.87727 15.9047 8.29483 15.9046C8.33842 15.9046 8.38103 15.9176 8.41727 15.9419C8.45352 15.9663 8.48176 16.0009 8.49844 16.0413C8.51512 16.0818 8.51947 16.1263 8.51096 16.1693C8.50245 16.2123 8.48146 16.2517 8.45063 16.2827L6.54229 18.2004C6.46785 18.2752 6.41716 18.3705 6.39663 18.4742C6.37609 18.578 6.38663 18.6855 6.42691 18.7832C6.46719 18.8809 6.53541 18.9645 6.62293 19.0232C6.71046 19.082 6.81336 19.1133 6.91862 19.1133H12.5067C12.5773 19.1133 12.645 19.1415 12.6949 19.1917C12.7448 19.2418 12.7728 19.3098 12.7728 19.3807C12.7728 19.4517 12.7448 19.5197 12.6949 19.5698C12.645 19.62 12.5773 19.6481 12.5067 19.6481H8.51522C8.37408 19.6481 8.23871 19.7045 8.1389 19.8048C8.03909 19.9051 7.98302 20.0411 7.98302 20.1829C7.98302 20.3248 8.03909 20.4608 8.1389 20.5611C8.23871 20.6614 8.37408 20.7177 8.51522 20.7177H14.1033C14.1739 20.7177 14.2416 20.7459 14.2915 20.796C14.3414 20.8462 14.3694 20.9142 14.3694 20.9851C14.3694 21.056 14.3414 21.1241 14.2915 21.1742C14.2416 21.2243 14.1739 21.2525 14.1033 21.2525H8.51522C8.37408 21.2525 8.23871 21.3089 8.1389 21.4092C8.03909 21.5094 7.98302 21.6455 7.98302 21.7873C7.98302 21.9291 8.03909 22.0652 8.1389 22.1655C8.23871 22.2658 8.37408 22.3221 8.51522 22.3221H13.0389C13.1095 22.3221 13.1772 22.3503 13.2271 22.4004C13.277 22.4506 13.305 22.5186 13.305 22.5895C13.305 22.6604 13.277 22.7284 13.2271 22.7786C13.1772 22.8287 13.1095 22.8569 13.0389 22.8569H8.51522C8.37408 22.8569 8.23871 22.9132 8.1389 23.0135C8.03909 23.1138 7.98302 23.2498 7.98302 23.3917C7.98302 23.5335 8.03909 23.6695 8.1389 23.7698C8.23871 23.8701 8.37408 23.9265 8.51522 23.9265H11.143C11.1511 23.9269 11.1589 23.9303 11.1647 23.9361C11.1705 23.9419 11.174 23.9496 11.1745 23.9578C11.175 23.966 11.1725 23.9741 11.1674 23.9806C11.1624 23.987 11.1551 23.9914 11.147 23.9928L7.49247 24.4518L3.87177 23.4123C3.82417 23.3986 3.77491 23.3917 3.72541 23.3917H0V24.4613H3.6509L6.38642 25.2467V30.344H6.38768C6.38718 30.4142 6.40056 30.4839 6.42705 30.5489C6.45354 30.614 6.49261 30.6731 6.54199 30.7228C6.59138 30.7726 6.6501 30.812 6.71475 30.8387C6.7794 30.8655 6.8487 30.8791 6.91862 30.8788H13.9437C13.8541 31.117 13.8206 31.3729 13.8457 31.6263C13.8708 31.8798 13.9539 32.124 14.0884 32.3398C14.223 32.5557 14.4054 32.7373 14.6214 32.8706C14.8374 33.0039 15.0811 33.0852 15.3335 33.1082L24.5871 33.9538C24.9239 33.9847 25.2611 34.0001 25.5989 34C26.2694 34 26.9385 33.9394 27.5982 33.8189L32.0273 33.0097L31.8369 31.9573L27.4078 32.7661ZM12.7728 10.5567C12.773 10.4149 12.8291 10.279 12.9289 10.1787C13.0287 10.0784 13.1639 10.022 13.305 10.0219H14.3694C14.9338 10.0225 15.4749 10.2481 15.874 10.6491C16.2731 11.0502 16.4976 11.5939 16.4982 12.161C16.4981 12.3028 16.442 12.4388 16.3422 12.539C16.2424 12.6393 16.1071 12.6957 15.966 12.6958H14.9016C14.3372 12.6952 13.7961 12.4696 13.397 12.0686C12.998 11.6676 12.7735 11.1238 12.7728 10.5567ZM14.6355 8.4175H15.966C16.0713 8.41751 16.1742 8.38615 16.2617 8.32738C16.3493 8.26862 16.4175 8.18509 16.4578 8.08737C16.498 7.98965 16.5086 7.88212 16.488 7.77837C16.4675 7.67463 16.4168 7.57934 16.3424 7.50455L15.5441 6.70236C15.4887 6.64668 15.4447 6.58057 15.4147 6.50782C15.3847 6.43506 15.3693 6.35708 15.3693 6.27834C15.3693 6.19959 15.3847 6.12161 15.4147 6.04886C15.4447 5.9761 15.4887 5.91 15.5441 5.85431C15.5995 5.79863 15.6653 5.75446 15.7377 5.72432C15.8101 5.69419 15.8877 5.67868 15.966 5.67868C16.0444 5.67868 16.122 5.69419 16.1944 5.72432C16.2668 5.75446 16.3326 5.79863 16.388 5.85431L17.1863 6.6565C17.2607 6.7313 17.3556 6.78223 17.4588 6.80287C17.5621 6.82351 17.6691 6.81292 17.7663 6.77244C17.8636 6.73196 17.9467 6.66341 18.0052 6.57546C18.0636 6.48751 18.0949 6.38411 18.0949 6.27834V5.20875C18.0949 4.92508 18.207 4.65303 18.4066 4.45244C18.6062 4.25186 18.877 4.13917 19.1593 4.13917C19.4416 4.13917 19.7123 4.25186 19.9119 4.45244C20.1115 4.65303 20.2237 4.92508 20.2237 5.20875V6.27834C20.2237 6.38411 20.2549 6.48751 20.3133 6.57546C20.3718 6.66341 20.4549 6.73196 20.5522 6.77244C20.6494 6.81292 20.7565 6.82351 20.8597 6.80287C20.9629 6.78223 21.0578 6.7313 21.1322 6.6565L21.9305 5.85431C21.9859 5.79863 22.0517 5.75446 22.1241 5.72432C22.1965 5.69419 22.2741 5.67868 22.3525 5.67868C22.4308 5.67868 22.5084 5.69419 22.5808 5.72432C22.6532 5.75446 22.719 5.79863 22.7744 5.85431C22.8298 5.91 22.8738 5.9761 22.9038 6.04886C22.9338 6.12161 22.9492 6.19959 22.9492 6.27834C22.9492 6.35708 22.9338 6.43506 22.9038 6.50782C22.8738 6.58057 22.8298 6.64668 22.7744 6.70236L21.9761 7.50455C21.9017 7.57934 21.851 7.67463 21.8305 7.77837C21.8099 7.88212 21.8205 7.98965 21.8608 8.08737C21.901 8.18509 21.9693 8.26862 22.0568 8.32738C22.1443 8.38615 22.2472 8.41751 22.3525 8.4175H23.683C23.8947 8.4175 24.0977 8.50202 24.2475 8.65246C24.3972 8.8029 24.4813 9.00694 24.4813 9.21969C24.4813 9.43245 24.3972 9.63649 24.2475 9.78693C24.0977 9.93736 23.8947 10.0219 23.683 10.0219H22.3525C22.2113 10.0219 22.0759 10.0782 21.9761 10.1785C21.8763 10.2788 21.8203 10.4148 21.8203 10.5567V10.8415C21.1993 10.2811 20.3842 9.9879 19.5504 10.025C18.7165 10.0622 17.9304 10.4266 17.3612 11.0401C17.1332 10.4275 16.7246 9.89946 16.19 9.52642C15.6554 9.15337 15.0203 8.95308 14.3694 8.9523H13.8838C13.9389 8.7961 14.0407 8.66084 14.1753 8.5651C14.3099 8.46935 14.4706 8.41779 14.6355 8.4175ZM21.7529 12.6958H17.63C17.7479 12.2365 18.0143 11.8295 18.3875 11.5389C18.7607 11.2483 19.2194 11.0907 19.6915 11.0907C20.1635 11.0907 20.6222 11.2483 20.9954 11.5389C21.3686 11.8295 21.635 12.2365 21.7529 12.6958ZM8.51522 5.20875C8.51522 4.64141 8.73951 4.0973 9.13874 3.69613C9.53797 3.29496 10.0794 3.06958 10.644 3.06958C11.2086 3.06958 11.7501 3.29496 12.1493 3.69613C12.5486 4.0973 12.7728 4.64141 12.7728 5.20875V9.04428C12.4618 9.15519 12.1925 9.36008 12.002 9.63086C11.8114 9.90163 11.7089 10.225 11.7084 10.5567C11.7079 11.3465 11.9985 12.1086 12.5241 12.6958H8.51522V5.20875ZM9.57963 13.7654H10.644V18.0438H9.57963V13.7654ZM8.29483 14.835C8.00852 14.8351 7.7239 14.8792 7.45082 14.9656V13.7654H8.51522V14.8554C8.44248 14.8423 8.36874 14.8354 8.29483 14.835ZM8.51522 17.7305V18.0438H8.20342L8.51522 17.7305ZM9.57963 25.2676L10.644 25.1339V29.0528L9.57963 27.9832V25.2676ZM7.51681 25.5267L8.51522 25.4013V27.9833L7.45082 29.0529V25.5309C7.47288 25.5308 7.49492 25.5295 7.51681 25.5267ZM8.20342 29.8092L9.04743 28.9611L9.89143 29.8092H8.20342ZM11.7084 24.9035C11.8705 24.8056 12.0046 24.6672 12.0979 24.5019C12.1911 24.3365 12.2403 24.1498 12.2406 23.9598C12.2406 23.9486 12.2406 23.9375 12.2401 23.9263H13.0389C13.238 23.9262 13.4345 23.8813 13.614 23.7948C13.7935 23.7083 13.9513 23.5824 14.076 23.4265C14.2007 23.2705 14.289 23.0885 14.3344 22.8937C14.3798 22.699 14.3811 22.4965 14.3383 22.3011C14.6656 22.2421 14.959 22.0622 15.1608 21.7967C15.3626 21.5312 15.4582 21.1994 15.4287 20.8666C15.3993 20.5338 15.2469 20.2242 15.0016 19.9987C14.7563 19.7732 14.4358 19.6481 14.1033 19.6481H13.8106C13.8499 19.4539 13.8458 19.2533 13.7985 19.0608C13.7512 18.8684 13.6619 18.6889 13.5371 18.5354C13.4123 18.3819 13.2552 18.2581 13.077 18.1731C12.8988 18.0881 12.704 18.0439 12.5067 18.0438H11.7084V13.7654H22.8847V24.9977C22.4558 25.015 22.0502 25.1981 21.7527 25.5089C21.4551 25.8197 21.2886 26.2341 21.2881 26.6653V26.7571C21.2888 27.1182 21.4055 27.4694 21.6207 27.7587L22.8392 29.3904C22.8687 29.4302 22.8847 29.4784 22.8849 29.528V29.5405C22.885 29.6116 22.857 29.6798 22.807 29.7302C22.7571 29.7806 22.6893 29.809 22.6186 29.8092H11.7084V24.9035Z" fill="black"/>
<path d="M47.3997 14H45.1731L45.1877 12.8501H47.3997C48.1614 12.8501 48.7961 12.6914 49.304 12.374C49.8118 12.0518 50.1926 11.6025 50.4465 11.0264C50.7053 10.4453 50.8347 9.7666 50.8347 8.99023V8.33838C50.8347 7.72803 50.7615 7.18604 50.615 6.7124C50.4685 6.23389 50.2537 5.83105 49.9705 5.50391C49.6873 5.17188 49.3406 4.92041 48.9304 4.74951C48.5251 4.57861 48.0588 4.49316 47.5315 4.49316H45.1292V3.33594H47.5315C48.2297 3.33594 48.8669 3.45312 49.4431 3.6875C50.0193 3.91699 50.5149 4.25146 50.9299 4.69092C51.3499 5.12549 51.6721 5.65283 51.8967 6.27295C52.1213 6.88818 52.2336 7.58154 52.2336 8.35303V8.99023C52.2336 9.76172 52.1213 10.4575 51.8967 11.0776C51.6721 11.6929 51.3474 12.2178 50.9226 12.6523C50.5027 13.0869 49.9949 13.4214 49.3992 13.6558C48.8083 13.8853 48.1418 14 47.3997 14ZM45.9275 3.33594V14H44.5139V3.33594H45.9275ZM57.4412 14.1465C56.8894 14.1465 56.3889 14.0537 55.9397 13.8682C55.4954 13.6777 55.1121 13.4116 54.7898 13.0698C54.4724 12.728 54.2283 12.3228 54.0574 11.854C53.8865 11.3853 53.801 10.8726 53.801 10.3159V10.0083C53.801 9.36377 53.8962 8.79004 54.0867 8.28711C54.2771 7.7793 54.5359 7.34961 54.863 6.99805C55.1902 6.64648 55.5613 6.38037 55.9763 6.19971C56.3914 6.01904 56.821 5.92871 57.2654 5.92871C57.8318 5.92871 58.3201 6.02637 58.7302 6.22168C59.1453 6.41699 59.4846 6.69043 59.7483 7.04199C60.012 7.38867 60.2073 7.79883 60.3342 8.27246C60.4612 8.74121 60.5247 9.25391 60.5247 9.81055V10.4185H54.6067V9.3125H59.1697V9.20996C59.1501 8.8584 59.0769 8.5166 58.95 8.18457C58.8279 7.85254 58.6326 7.5791 58.364 7.36426C58.0955 7.14941 57.7292 7.04199 57.2654 7.04199C56.9578 7.04199 56.6746 7.10791 56.4158 7.23975C56.157 7.3667 55.9348 7.55713 55.7493 7.81104C55.5637 8.06494 55.4197 8.375 55.3171 8.74121C55.2146 9.10742 55.1633 9.52979 55.1633 10.0083V10.3159C55.1633 10.6919 55.2146 11.0459 55.3171 11.3779C55.4246 11.7051 55.5784 11.9932 55.7786 12.2422C55.9836 12.4912 56.2302 12.6865 56.5183 12.8281C56.8113 12.9697 57.1433 13.0405 57.5144 13.0405C57.9929 13.0405 58.3982 12.9429 58.7302 12.7476C59.0623 12.5522 59.3528 12.291 59.6018 11.9639L60.4221 12.6157C60.2512 12.8745 60.0339 13.1211 59.7703 13.3555C59.5066 13.5898 59.1819 13.7803 58.7961 13.9268C58.4153 14.0732 57.9636 14.1465 57.4412 14.1465ZM63.5789 2.75V14H62.2166V2.75H63.5789ZM67.2263 6.0752V14H65.864V6.0752H67.2263ZM65.7615 3.97314C65.7615 3.75342 65.8274 3.56787 65.9592 3.4165C66.0959 3.26514 66.2961 3.18945 66.5598 3.18945C66.8186 3.18945 67.0164 3.26514 67.1531 3.4165C67.2947 3.56787 67.3655 3.75342 67.3655 3.97314C67.3655 4.18311 67.2947 4.36377 67.1531 4.51514C67.0164 4.66162 66.8186 4.73486 66.5598 4.73486C66.2961 4.73486 66.0959 4.66162 65.9592 4.51514C65.8274 4.36377 65.7615 4.18311 65.7615 3.97314ZM71.8113 12.7769L73.9792 6.0752H75.3635L72.5144 14H71.6062L71.8113 12.7769ZM70.0022 6.0752L72.2361 12.8135L72.3899 14H71.4817L68.6106 6.0752H70.0022ZM79.8533 14.1465C79.3015 14.1465 78.801 14.0537 78.3518 13.8682C77.9075 13.6777 77.5242 13.4116 77.2019 13.0698C76.8845 12.728 76.6404 12.3228 76.4695 11.854C76.2986 11.3853 76.2131 10.8726 76.2131 10.3159V10.0083C76.2131 9.36377 76.3083 8.79004 76.4988 8.28711C76.6892 7.7793 76.948 7.34961 77.2751 6.99805C77.6023 6.64648 77.9734 6.38037 78.3884 6.19971C78.8035 6.01904 79.2332 5.92871 79.6775 5.92871C80.2439 5.92871 80.7322 6.02637 81.1423 6.22168C81.5574 6.41699 81.8967 6.69043 82.1604 7.04199C82.4241 7.38867 82.6194 7.79883 82.7463 8.27246C82.8733 8.74121 82.9368 9.25391 82.9368 9.81055V10.4185H77.0188V9.3125H81.5818V9.20996C81.5623 8.8584 81.489 8.5166 81.3621 8.18457C81.24 7.85254 81.0447 7.5791 80.7761 7.36426C80.5076 7.14941 80.1414 7.04199 79.6775 7.04199C79.3699 7.04199 79.0867 7.10791 78.8279 7.23975C78.5691 7.3667 78.3469 7.55713 78.1614 7.81104C77.9758 8.06494 77.8318 8.375 77.7292 8.74121C77.6267 9.10742 77.5754 9.52979 77.5754 10.0083V10.3159C77.5754 10.6919 77.6267 11.0459 77.7292 11.3779C77.8367 11.7051 77.9905 11.9932 78.1907 12.2422C78.3958 12.4912 78.6423 12.6865 78.9304 12.8281C79.2234 12.9697 79.5554 13.0405 79.9265 13.0405C80.405 13.0405 80.8103 12.9429 81.1423 12.7476C81.4744 12.5522 81.7649 12.291 82.0139 11.9639L82.8342 12.6157C82.6633 12.8745 82.446 13.1211 82.1824 13.3555C81.9187 13.5898 81.594 13.7803 81.2083 13.9268C80.8274 14.0732 80.3757 14.1465 79.8533 14.1465ZM85.8738 7.32031V14H84.5188V6.0752H85.8372L85.8738 7.32031ZM88.3494 6.03125L88.342 7.29102C88.2297 7.2666 88.1223 7.25195 88.0198 7.24707C87.9221 7.2373 87.8098 7.23242 87.6829 7.23242C87.3704 7.23242 87.0945 7.28125 86.8552 7.37891C86.616 7.47656 86.4133 7.61328 86.2473 7.78906C86.0813 7.96484 85.9495 8.1748 85.8518 8.41895C85.759 8.6582 85.698 8.92188 85.6687 9.20996L85.2878 9.42969C85.2878 8.95117 85.3342 8.50195 85.427 8.08203C85.5247 7.66211 85.6736 7.29102 85.8738 6.96875C86.074 6.6416 86.3279 6.3877 86.6355 6.20703C86.948 6.02148 87.3191 5.92871 87.7488 5.92871C87.8464 5.92871 87.9587 5.94092 88.0857 5.96533C88.2126 5.98486 88.3005 6.00684 88.3494 6.03125ZM91.9602 13.1797L94.1648 6.0752H95.615L92.4363 15.2231C92.363 15.4185 92.2654 15.6284 92.1433 15.853C92.0261 16.0825 91.8748 16.2998 91.6892 16.5049C91.5037 16.71 91.2791 16.876 91.0154 17.0029C90.7566 17.1348 90.4465 17.2007 90.0852 17.2007C89.9778 17.2007 89.8411 17.186 89.675 17.1567C89.509 17.1274 89.3918 17.103 89.3235 17.0835L89.3162 15.9849C89.3552 15.9897 89.4163 15.9946 89.4993 15.9995C89.5872 16.0093 89.6482 16.0142 89.6824 16.0142C89.99 16.0142 90.2512 15.9727 90.4661 15.8896C90.6809 15.8115 90.8616 15.6772 91.0081 15.4868C91.1594 15.3013 91.2888 15.0449 91.3962 14.7178L91.9602 13.1797ZM90.3416 6.0752L92.3997 12.2275L92.7512 13.6558L91.7771 14.1538L88.8621 6.0752H90.3416ZM45.9275 21.3359V32H44.5139V21.3359H45.9275ZM50.3953 26.1333V27.2905H45.6199V26.1333H50.3953ZM51.1204 21.3359V22.4932H45.6199V21.3359H51.1204ZM52.0798 28.1255V27.957C52.0798 27.3857 52.1628 26.856 52.3289 26.3677C52.4949 25.8745 52.7341 25.4473 53.0466 25.0859C53.3591 24.7197 53.7375 24.4365 54.1819 24.2363C54.6262 24.0312 55.1243 23.9287 55.676 23.9287C56.2327 23.9287 56.7332 24.0312 57.1775 24.2363C57.6267 24.4365 58.0076 24.7197 58.3201 25.0859C58.6375 25.4473 58.8792 25.8745 59.0452 26.3677C59.2112 26.856 59.2942 27.3857 59.2942 27.957V28.1255C59.2942 28.6968 59.2112 29.2266 59.0452 29.7148C58.8792 30.2031 58.6375 30.6304 58.3201 30.9966C58.0076 31.3579 57.6292 31.6411 57.1848 31.8462C56.7454 32.0464 56.2473 32.1465 55.6907 32.1465C55.134 32.1465 54.6335 32.0464 54.1892 31.8462C53.7449 31.6411 53.364 31.3579 53.0466 30.9966C52.7341 30.6304 52.4949 30.2031 52.3289 29.7148C52.1628 29.2266 52.0798 28.6968 52.0798 28.1255ZM53.4348 27.957V28.1255C53.4348 28.521 53.4812 28.8945 53.574 29.2461C53.6667 29.5928 53.8059 29.9004 53.9915 30.1689C54.1819 30.4375 54.4187 30.6499 54.7019 30.8062C54.9851 30.9575 55.3147 31.0332 55.6907 31.0332C56.0618 31.0332 56.3865 30.9575 56.6648 30.8062C56.948 30.6499 57.1824 30.4375 57.3679 30.1689C57.5535 29.9004 57.6926 29.5928 57.7854 29.2461C57.8831 28.8945 57.9319 28.521 57.9319 28.1255V27.957C57.9319 27.5664 57.8831 27.1978 57.7854 26.8511C57.6926 26.4995 57.551 26.1895 57.3606 25.9209C57.175 25.6475 56.9407 25.4326 56.6575 25.2764C56.3792 25.1201 56.052 25.042 55.676 25.042C55.3049 25.042 54.9778 25.1201 54.6946 25.2764C54.4163 25.4326 54.1819 25.6475 53.9915 25.9209C53.8059 26.1895 53.6667 26.4995 53.574 26.8511C53.4812 27.1978 53.4348 27.5664 53.4348 27.957ZM60.6345 28.1255V27.957C60.6345 27.3857 60.7175 26.856 60.8835 26.3677C61.0496 25.8745 61.2888 25.4473 61.6013 25.0859C61.9138 24.7197 62.2922 24.4365 62.7366 24.2363C63.1809 24.0312 63.679 23.9287 64.2307 23.9287C64.7874 23.9287 65.2878 24.0312 65.7322 24.2363C66.1814 24.4365 66.5623 24.7197 66.8748 25.0859C67.1921 25.4473 67.4338 25.8745 67.5999 26.3677C67.7659 26.856 67.8489 27.3857 67.8489 27.957V28.1255C67.8489 28.6968 67.7659 29.2266 67.5999 29.7148C67.4338 30.2031 67.1921 30.6304 66.8748 30.9966C66.5623 31.3579 66.1838 31.6411 65.7395 31.8462C65.3 32.0464 64.802 32.1465 64.2454 32.1465C63.6887 32.1465 63.1882 32.0464 62.7439 31.8462C62.2996 31.6411 61.9187 31.3579 61.6013 30.9966C61.2888 30.6304 61.0496 30.2031 60.8835 29.7148C60.7175 29.2266 60.6345 28.6968 60.6345 28.1255ZM61.9895 27.957V28.1255C61.9895 28.521 62.0359 28.8945 62.1287 29.2461C62.2214 29.5928 62.3606 29.9004 62.5461 30.1689C62.7366 30.4375 62.9734 30.6499 63.2566 30.8062C63.5398 30.9575 63.8694 31.0332 64.2454 31.0332C64.6165 31.0332 64.9412 30.9575 65.2195 30.8062C65.5027 30.6499 65.7371 30.4375 65.9226 30.1689C66.1082 29.9004 66.2473 29.5928 66.3401 29.2461C66.4377 28.8945 66.4866 28.521 66.4866 28.1255V27.957C66.4866 27.5664 66.4377 27.1978 66.3401 26.8511C66.2473 26.4995 66.1057 26.1895 65.9153 25.9209C65.7297 25.6475 65.4954 25.4326 65.2122 25.2764C64.9338 25.1201 64.6067 25.042 64.2307 25.042C63.8596 25.042 63.5325 25.1201 63.2493 25.2764C62.9709 25.4326 62.7366 25.6475 62.5461 25.9209C62.3606 26.1895 62.2214 26.4995 62.1287 26.8511C62.0359 27.1978 61.9895 27.5664 61.9895 27.957ZM74.5432 30.4619V20.75H75.9055V32H74.6604L74.5432 30.4619ZM69.2112 28.1255V27.9717C69.2112 27.3662 69.2844 26.8169 69.4309 26.3237C69.5823 25.8257 69.7947 25.3984 70.0681 25.042C70.3464 24.6855 70.676 24.4121 71.0569 24.2217C71.4426 24.0264 71.8723 23.9287 72.3459 23.9287C72.844 23.9287 73.2786 24.0166 73.6497 24.1924C74.0256 24.3633 74.343 24.6147 74.6018 24.9468C74.8655 25.2739 75.073 25.6694 75.2244 26.1333C75.3757 26.5972 75.4807 27.1221 75.5393 27.708V28.3818C75.4856 28.9629 75.3806 29.4854 75.2244 29.9492C75.073 30.4131 74.8655 30.8086 74.6018 31.1357C74.343 31.4629 74.0256 31.7144 73.6497 31.8901C73.2737 32.061 72.8342 32.1465 72.3313 32.1465C71.8674 32.1465 71.4426 32.0464 71.0569 31.8462C70.676 31.646 70.3464 31.3652 70.0681 31.0039C69.7947 30.6426 69.5823 30.2178 69.4309 29.7295C69.2844 29.2363 69.2112 28.7017 69.2112 28.1255ZM70.5735 27.9717V28.1255C70.5735 28.521 70.6125 28.8921 70.6907 29.2388C70.7737 29.5854 70.9006 29.8906 71.0715 30.1543C71.2424 30.418 71.4597 30.6255 71.7234 30.7769C71.9871 30.9233 72.302 30.9966 72.6682 30.9966C73.1174 30.9966 73.4861 30.9014 73.7742 30.7109C74.0671 30.5205 74.3015 30.269 74.4773 29.9565C74.6531 29.644 74.7898 29.3047 74.8875 28.9385V27.1733C74.8289 26.9048 74.7434 26.646 74.6311 26.397C74.5237 26.1431 74.3821 25.9185 74.2063 25.7231C74.0354 25.5229 73.823 25.3643 73.5691 25.2471C73.3201 25.1299 73.0247 25.0713 72.6829 25.0713C72.3118 25.0713 71.9919 25.1494 71.7234 25.3057C71.4597 25.457 71.2424 25.667 71.0715 25.9355C70.9006 26.1992 70.7737 26.5068 70.6907 26.8584C70.6125 27.2051 70.5735 27.5762 70.5735 27.9717Z" fill="black"/>
</svg>
